<svg width="134.9" height="99.3" viewBox="0 0 134.9 99.3" xmlns="http://www.w3.org/2000/svg"><g id="svgGroup" stroke-linecap="round" fill-rule="evenodd" font-size="9pt" stroke="#956ee8" stroke-width="0.25mm" fill="#7C3AED" style="stroke:#956ee8;stroke-width:0.25mm;fill:#7C3AED"><path d="M 58.6 99.3 L 44.3 99.3 L 44.3 96.1 L 76.4 0 L 90.6 0 L 90.6 3.2 L 58.6 99.3 Z M 41.9 77.3 L 39.8 77.3 L 0 61.2 L 0 42.8 L 39.8 26.6 L 41.9 26.6 L 41.9 42.2 L 14.8 51.4 L 14.8 52.5 L 41.9 61.8 L 41.9 77.3 Z M 95.1 77.3 L 93 77.3 L 93 61.8 L 120.1 52.5 L 120.1 51.4 L 93 42.2 L 93 26.6 L 95.1 26.6 L 134.9 42.8 L 134.9 61.2 L 95.1 77.3 Z" vector-effect="non-scaling-stroke"/></g></svg>
